<?xml version="1.0" encoding="UTF-8"?>
<svg xmlns="http://www.w3.org/2000/svg" xmlns:xlink="http://www.w3.org/1999/xlink" width="222pt" height="352pt" viewBox="0 0 222 352" version="1.1">
<g id="surface1">
<path style="fill-rule:nonzero;fill:rgb(0%,40.784314%,21.568627%);fill-opacity:1;stroke-width:0.9308;stroke-linecap:butt;stroke-linejoin:miter;stroke:rgb(0%,0%,0%);stroke-opacity:1;stroke-miterlimit:10;" d="M 185.653505 745.46218 C 185.653505 745.46218 21.426309 645.93598 61.238387 599.896196 C 101.050465 553.865922 255.272382 495.396063 255.272382 495.396063 L 269.82897 554.493608 L 138.3731 618.603127 L 225.864654 718.91869 Z M 185.653505 745.46218 " transform="matrix(0.411111,0,0,0.410735,0,0)"/>
<path style="fill-rule:nonzero;fill:rgb(0%,40.784314%,21.568627%);fill-opacity:1;stroke-width:0.9308;stroke-linecap:butt;stroke-linejoin:miter;stroke:rgb(0%,0%,0%);stroke-opacity:1;stroke-miterlimit:10;" d="M 185.653505 745.46218 C 185.653505 745.46218 135.883657 823.83728 150.820312 837.522727 C 165.747466 851.208174 169.434122 828.811213 169.434122 828.811213 C 169.434122 828.811213 174.032939 847.470592 179.838471 847.470592 C 185.653505 847.470592 198.091216 827.565352 198.091216 827.565352 C 198.091216 827.565352 204.305321 851.208174 209.284206 847.470592 C 214.263091 843.74252 225.874155 827.565352 225.874155 827.565352 C 225.874155 827.565352 217.170608 852.007047 231.261613 847.870028 C 245.36212 843.74252 245.780194 828.811213 245.780194 828.811213 L 225.874155 718.937711 L 185.644003 745.471691 Z M 185.653505 745.46218 " transform="matrix(0.411111,0,0,0.410735,0,0)"/>
<path style=" stroke:none;fill-rule:nonzero;fill:rgb(22.352941%,70.980392%,29.019608%);fill-opacity:1;" d="M 80.210938 303.625 C 66.898438 295.113281 18.167969 262.261719 32.34375 245.890625 C 45.460938 230.738281 88.78125 212.304688 105.46875 205.582031 L 104.953125 203.480469 C 104.953125 203.480469 41.550781 227.496094 25.183594 246.402344 C 8.816406 265.308594 76.332031 306.1875 76.332031 306.1875 Z M 80.210938 303.625 "/>
<path style="fill-rule:nonzero;fill:rgb(0%,40.784314%,21.568627%);fill-opacity:1;stroke-width:0.9308;stroke-linecap:butt;stroke-linejoin:miter;stroke:rgb(0%,0%,0%);stroke-opacity:1;stroke-miterlimit:10;" d="M 356.921453 745.46218 C 356.921453 745.46218 521.139147 645.93598 481.327069 599.896196 C 441.514992 553.865922 287.302576 495.396063 287.302576 495.396063 L 272.736486 554.493608 L 404.201858 618.603127 L 316.700802 718.91869 Z M 356.921453 745.46218 " transform="matrix(0.411111,0,0,0.410735,0,0)"/>
<path style="fill-rule:nonzero;fill:rgb(0%,40.784314%,21.568627%);fill-opacity:1;stroke-width:0.9308;stroke-linecap:butt;stroke-linejoin:miter;stroke:rgb(0%,0%,0%);stroke-opacity:1;stroke-miterlimit:10;" d="M 356.921453 745.46218 C 356.921453 745.46218 406.681799 823.83728 391.754645 837.522727 C 376.827492 851.208174 373.140836 828.811213 373.140836 828.811213 C 373.140836 828.811213 368.532517 847.470592 362.726985 847.470592 C 356.921453 847.470592 344.483742 827.565352 344.483742 827.565352 C 344.483742 827.565352 338.260135 851.208174 333.28125 847.470592 C 328.302365 843.74252 316.691301 827.565352 316.691301 827.565352 C 316.691301 827.565352 325.40435 852.007047 311.303843 847.870028 C 297.203336 843.74252 296.785262 828.811213 296.785262 828.811213 L 316.691301 718.91869 L 356.911951 745.471691 Z M 356.921453 745.46218 " transform="matrix(0.411111,0,0,0.410735,0,0)"/>
<path style="fill-rule:nonzero;fill:rgb(0%,40.784314%,21.568627%);fill-opacity:1;stroke-width:0.9308;stroke-linecap:butt;stroke-linejoin:miter;stroke:rgb(0%,0%,0%);stroke-opacity:1;stroke-miterlimit:10;" d="M 137.13788 244.72128 C 137.13788 244.72128 -27.079814 344.247481 12.732264 390.277754 C 52.544341 436.308028 206.756757 494.777888 206.756757 494.777888 L 221.322846 435.689853 L 89.857475 371.580333 L 177.35853 271.264771 L 137.13788 244.71177 Z M 137.13788 244.72128 " transform="matrix(0.411111,0,0,0.410735,0,0)"/>
<path style=" stroke:none;fill-rule:nonzero;fill:rgb(22.352941%,70.980392%,29.019608%);fill-opacity:1;" d="M 12.90625 160.300781 C -1.046875 144.183594 45.949219 112.105469 60.125 102.988281 L 56.378906 100.519531 C 56.378906 100.519531 -11.132812 141.398438 5.230469 160.304688 C 21.597656 179.210938 85 203.226562 85 203.226562 L 85.679688 200.46875 C 68.738281 193.625 25.929688 175.34375 12.90625 160.300781 Z M 12.90625 160.300781 "/>
<path style="fill-rule:nonzero;fill:rgb(0%,40.784314%,21.568627%);fill-opacity:1;stroke-width:0.9308;stroke-linecap:butt;stroke-linejoin:miter;stroke:rgb(0%,0%,0%);stroke-opacity:1;stroke-miterlimit:10;" d="M 404.192356 238.501487 C 404.192356 238.501487 568.410051 338.027688 528.597973 384.057961 C 488.785895 430.088235 334.57348 488.558094 334.57348 488.558094 L 320.00739 429.470059 L 451.472762 365.35103 L 363.971706 265.044977 L 404.192356 238.491977 Z M 404.192356 238.501487 " transform="matrix(0.411111,0,0,0.410735,0,0)"/>
<path style="fill-rule:nonzero;fill:rgb(0%,40.784314%,21.568627%);fill-opacity:1;stroke-width:0.9308;stroke-linecap:butt;stroke-linejoin:miter;stroke:rgb(0%,0%,0%);stroke-opacity:1;stroke-miterlimit:10;" d="M 367.287796 480.483776 C 367.287796 436.85012 320.872044 401.48099 263.624367 401.48099 C 206.367188 401.48099 159.951436 436.85012 159.951436 480.483776 C 159.951436 524.107921 206.367188 559.477051 263.624367 559.477051 C 320.872044 559.477051 367.287796 524.107921 367.287796 480.483776 Z M 367.287796 480.483776 " transform="matrix(0.411111,0,0,0.410735,0,0)"/>
<path style=" stroke:none;fill-rule:nonzero;fill:rgb(22.352941%,70.980392%,29.019608%);fill-opacity:1;" d="M 74.960938 197.351562 C 74.960938 180.613281 91.605469 166.84375 112.980469 165.09375 C 111.46875 164.96875 109.933594 164.902344 108.378906 164.902344 C 84.839844 164.902344 65.757812 179.429688 65.757812 197.351562 C 65.757812 215.269531 84.839844 229.796875 108.378906 229.796875 C 109.933594 229.796875 111.46875 229.730469 112.980469 229.605469 C 91.601562 227.851562 74.960938 214.082031 74.960938 197.347656 Z M 74.960938 197.351562 "/>
<path style="fill-rule:nonzero;fill:rgb(0%,40.784314%,21.568627%);fill-opacity:1;stroke-width:0.9308;stroke-linecap:butt;stroke-linejoin:miter;stroke:rgb(0%,0%,0%);stroke-opacity:1;stroke-miterlimit:10;" d="M 393.170397 323.562389 C 406.159206 299.643766 413.627534 271.597634 413.627534 241.611384 C 413.627534 154.011208 349.852196 82.997148 271.178209 82.997148 C 192.504223 82.997148 128.738387 154.011208 128.738387 241.611384 C 128.738387 271.597634 136.216216 299.643766 149.205025 323.562389 C 127.46516 335.250655 114.438345 350.134411 114.438345 366.3306 C 114.438345 403.953691 184.617821 434.443992 271.187711 434.443992 C 357.757601 434.443992 427.937078 403.953691 427.937078 366.3306 C 427.946579 350.134411 414.910262 335.250655 393.170397 323.562389 Z M 393.170397 323.562389 " transform="matrix(0.411111,0,0,0.410735,0,0)"/>
<path style=" stroke:none;fill-rule:nonzero;fill:rgb(22.352941%,70.980392%,29.019608%);fill-opacity:1;" d="M 55.738281 150.464844 C 55.738281 143.808594 61.09375 137.699219 70.03125 132.898438 C 64.695312 123.074219 61.621094 111.554688 61.621094 99.238281 C 61.621094 64.882812 85.523438 36.742188 115.832031 34.269531 C 114.398438 34.152344 112.949219 34.089844 111.484375 34.089844 C 79.144531 34.089844 52.921875 63.257812 52.921875 99.238281 C 52.921875 111.558594 55.996094 123.074219 61.335938 132.898438 C 52.398438 137.699219 47.042969 143.8125 47.042969 150.464844 C 47.042969 165.917969 75.894531 178.441406 111.484375 178.441406 C 112.945312 178.441406 114.394531 178.417969 115.832031 178.378906 C 82.277344 177.410156 55.742188 165.285156 55.742188 150.46875 Z M 55.738281 150.464844 "/>
<path style="fill-rule:nonzero;fill:rgb(94.901961%,94.901961%,94.901961%);fill-opacity:1;stroke-width:1.2441;stroke-linecap:butt;stroke-linejoin:miter;stroke:rgb(0%,0%,0%);stroke-opacity:1;stroke-miterlimit:10;" d="M 275.225929 230.617376 C 275.225929 185.043601 253.875633 148.095748 227.536951 148.095748 C 201.198269 148.095748 179.847973 185.043601 179.847973 230.617376 C 179.847973 276.191151 201.198269 313.139005 227.536951 313.139005 C 253.875633 313.139005 275.225929 276.191151 275.225929 230.617376 Z M 275.225929 230.617376 " transform="matrix(0.411111,0,0,0.410735,0,0)"/>
<path style="fill-rule:nonzero;fill:rgb(0%,0%,0%);fill-opacity:1;stroke-width:1.2441;stroke-linecap:butt;stroke-linejoin:miter;stroke:rgb(0%,0%,0%);stroke-opacity:1;stroke-miterlimit:10;" d="M 227.536951 148.095748 C 222.216005 148.095748 217.104096 149.62692 212.324747 152.413463 C 207.060811 164.786477 203.90625 180.431064 203.90625 197.445146 C 203.90625 237.531428 221.351351 270.01891 242.882179 270.01891 C 256.213049 270.01891 267.97614 257.550792 275.00739 238.549039 C 275.149916 235.943193 275.225929 233.299305 275.225929 230.626887 C 275.235431 185.062622 253.885135 148.114768 227.546453 148.114768 Z M 227.536951 148.095748 " transform="matrix(0.411111,0,0,0.410735,0,0)"/>
<path style=" stroke:none;fill-rule:nonzero;fill:rgb(100%,100%,100%);fill-opacity:1;" d="M 95.417969 103.925781 C 95.417969 101.761719 92.289062 100.007812 88.429688 100.007812 C 84.570312 100.007812 81.441406 101.761719 81.441406 103.925781 C 81.441406 106.085938 84.570312 107.839844 88.429688 107.839844 C 92.289062 107.839844 95.417969 106.085938 95.417969 103.925781 Z M 95.417969 103.925781 "/>
<path style="fill-rule:nonzero;fill:rgb(100%,100%,100%);fill-opacity:1;stroke-width:1.2441;stroke-linecap:butt;stroke-linejoin:miter;stroke:rgb(0%,0%,0%);stroke-opacity:1;stroke-miterlimit:10;" d="M 263.614865 186.25142 C 263.614865 178.462413 258.227407 172.147516 251.585726 172.147516 C 244.944046 172.147516 239.56609 178.462413 239.56609 186.25142 C 239.56609 194.040427 244.944046 200.345814 251.585726 200.345814 C 258.227407 200.345814 263.614865 194.040427 263.614865 186.25142 Z M 263.614865 186.25142 " transform="matrix(0.411111,0,0,0.410735,0,0)"/>
<path style="fill-rule:nonzero;fill:rgb(94.901961%,94.901961%,94.901961%);fill-opacity:1;stroke-width:1.2441;stroke-linecap:butt;stroke-linejoin:miter;stroke:rgb(0%,0%,0%);stroke-opacity:1;stroke-miterlimit:10;" d="M 387.184333 230.617376 C 387.184333 185.043601 365.834037 148.095748 339.495355 148.095748 C 313.166174 148.095748 291.806377 185.043601 291.806377 230.617376 C 291.806377 276.191151 313.166174 313.139005 339.495355 313.139005 C 365.834037 313.139005 387.184333 276.191151 387.184333 230.617376 Z M 387.184333 230.617376 " transform="matrix(0.411111,0,0,0.410735,0,0)"/>
<path style="fill-rule:nonzero;fill:rgb(0%,0%,0%);fill-opacity:1;stroke-width:1.2441;stroke-linecap:butt;stroke-linejoin:miter;stroke:rgb(0%,0%,0%);stroke-opacity:1;stroke-miterlimit:10;" d="M 339.495355 148.095748 C 334.174409 148.095748 329.0625 149.62692 324.28315 152.413463 C 319.019215 164.786477 315.864654 180.431064 315.864654 197.445146 C 315.864654 237.531428 333.309755 270.01891 354.840583 270.01891 C 368.171453 270.01891 379.934544 257.550792 386.965794 238.549039 C 387.108319 235.943193 387.184333 233.299305 387.184333 230.626887 C 387.193834 185.062622 365.843539 148.114768 339.504856 148.114768 Z M 339.495355 148.095748 " transform="matrix(0.411111,0,0,0.410735,0,0)"/>
<path style=" stroke:none;fill-rule:nonzero;fill:rgb(100%,100%,100%);fill-opacity:1;" d="M 141.449219 103.925781 C 141.449219 101.761719 138.316406 100.007812 134.457031 100.007812 C 130.597656 100.007812 127.46875 101.761719 127.46875 103.925781 C 127.46875 106.085938 130.597656 107.839844 134.457031 107.839844 C 138.316406 107.839844 141.449219 106.085938 141.449219 103.925781 Z M 141.449219 103.925781 "/>
<path style="fill-rule:nonzero;fill:rgb(100%,100%,100%);fill-opacity:1;stroke-width:1.2441;stroke-linecap:butt;stroke-linejoin:miter;stroke:rgb(0%,0%,0%);stroke-opacity:1;stroke-miterlimit:10;" d="M 375.58277 186.25142 C 375.58277 178.462413 370.204814 172.147516 363.563133 172.147516 C 356.921453 172.147516 351.533995 178.462413 351.533995 186.25142 C 351.533995 194.040427 356.921453 200.345814 363.563133 200.345814 C 370.204814 200.345814 375.58277 194.040427 375.58277 186.25142 Z M 375.58277 186.25142 " transform="matrix(0.411111,0,0,0.410735,0,0)"/>
<path style=" stroke:none;fill-rule:nonzero;fill:rgb(0%,0%,0%);fill-opacity:1;" d="M 78.652344 151.269531 C 79.300781 151.757812 79.992188 152.265625 80.683594 152.738281 C 81.375 153.21875 82.070312 153.691406 82.78125 154.144531 C 84.199219 155.058594 85.628906 155.945312 87.09375 156.753906 C 90.015625 158.402344 93.015625 159.867188 96.09375 161.089844 C 102.234375 163.550781 108.683594 165.046875 115.15625 165.175781 C 121.625 165.316406 128.078125 164.039062 134.148438 161.539062 C 140.242188 159.070312 145.90625 155.410156 151.316406 151.257812 L 152.921875 152.957031 C 148.320312 158.257812 142.683594 162.820312 136.199219 166.054688 C 132.960938 167.664062 129.511719 168.914062 125.945312 169.730469 C 122.378906 170.546875 118.703125 170.917969 115.042969 170.851562 C 107.707031 170.714844 100.519531 168.761719 94.078125 165.628906 C 90.847656 164.054688 87.785156 162.195312 84.925781 160.089844 C 83.503906 159.019531 82.113281 157.917969 80.792969 156.734375 C 79.472656 155.542969 78.210938 154.328125 77.023438 152.945312 L 78.65625 151.277344 Z M 78.652344 151.269531 "/>
<path style=" stroke:none;fill-rule:nonzero;fill:rgb(0%,0%,0%);fill-opacity:1;" d="M 146.40625 144.839844 C 147.421875 146.535156 148.351562 147.957031 149.351562 149.222656 C 150.355469 150.476562 151.394531 151.542969 152.578125 152.46875 C 153.761719 153.386719 155.09375 154.167969 156.597656 154.859375 C 158.097656 155.582031 159.753906 156.15625 161.554688 156.949219 C 159.761719 157.769531 157.808594 158.015625 155.824219 157.835938 C 153.851562 157.628906 151.84375 156.914062 150.160156 155.65625 C 148.46875 154.414062 147.160156 152.648438 146.496094 150.722656 C 146.15625 149.765625 145.964844 148.765625 145.933594 147.773438 C 145.921875 147.273438 145.945312 146.777344 146.019531 146.285156 C 146.089844 145.800781 146.210938 145.308594 146.410156 144.84375 Z M 146.40625 144.839844 "/>
<path style=" stroke:none;fill-rule:nonzero;fill:rgb(0%,0%,0%);fill-opacity:1;" d="M 82.0625 141.191406 C 82.636719 142.183594 82.949219 143.238281 83.148438 144.332031 C 83.339844 145.425781 83.378906 146.554688 83.269531 147.691406 C 83.140625 148.828125 82.875 149.972656 82.417969 151.070312 C 81.960938 152.167969 81.328125 153.214844 80.539062 154.136719 C 79.75 155.058594 78.804688 155.851562 77.777344 156.460938 C 76.75 157.070312 75.644531 157.496094 74.527344 157.746094 C 73.414062 158 72.289062 158.085938 71.1875 158.011719 C 70.085938 157.933594 69.007812 157.730469 67.96875 157.296875 C 68.941406 156.738281 69.871094 156.289062 70.746094 155.816406 C 71.621094 155.347656 72.445312 154.886719 73.203125 154.398438 C 74.726562 153.421875 75.972656 152.371094 76.996094 151.144531 C 78.015625 149.914062 78.832031 148.476562 79.5 146.820312 C 80.1875 145.167969 80.703125 143.324219 81.273438 141.316406 L 82.0625 141.195312 Z M 82.0625 141.191406 "/>
</g>
</svg>
